<?xml version="1.0" encoding="iso-8859-1"?>
<!-- Generator: Adobe Illustrator 19.0.0, SVG Export Plug-In . SVG Version: 6.00 Build 0)  -->
<svg version="1.1" id="Capa_1" xmlns="http://www.w3.org/2000/svg" xmlns:xlink="http://www.w3.org/1999/xlink" x="0px" y="0px"
	 viewBox="0 0 512 512" style="enable-background:new 0 0 512 512;" xml:space="preserve">
<path style="fill:#FD4E26;" d="M135,391H15c-8.401,0-15,6.599-15,15v91c0,8.399,6.599,15,15,15h120c8.401,0,15-6.601,15-15v-91
	C150,397.599,143.401,391,135,391z"/>
<path style="fill:#FCBF29;" d="M316,271H196c-8.401,0-15,6.599-15,15v211c0,8.399,6.599,15,15,15h120c8.401,0,15-6.601,15-15V286
	C331,277.599,324.401,271,316,271z"/>
<path style="fill:#FD4E26;" d="M497,331H377c-8.401,0-15,6.599-15,15v151c0,8.399,6.599,15,15,15h120c8.401,0,15-6.601,15-15V346
	C512,337.599,505.401,331,497,331z"/>
<g>
	<path style="fill:#4DBBEB;" d="M75,121c-32.999,0-60,26.999-60,60c0,32.999,27.001,60,60,60s60-27.001,60-60
		C135,147.999,107.999,121,75,121z"/>
	<path style="fill:#4DBBEB;" d="M75,241c-41.4,0-75,33.6-75,75v30c0,8.399,6.599,15,15,15h120c8.401,0,15-6.601,15-15v-30
		C150,274.6,116.4,241,75,241z"/>
</g>
<path style="fill:#FD3018;" d="M150,406v91c0,8.399-6.599,15-15,15H75V391h60C143.401,391,150,397.599,150,406z"/>
<g>
	<path style="fill:#159CE4;" d="M150,316v30c0,8.399-6.599,15-15,15H75V241C116.4,241,150,274.6,150,316z"/>
	<path style="fill:#159CE4;" d="M135,181c0,32.999-27.001,60-60,60V121C107.999,121,135,147.999,135,181z"/>
</g>
<g>
	<path style="fill:#4DBBEB;" d="M256,0c-32.999,0-60,27.999-60,61c0,32.999,27.001,60,60,60s60-27.001,60-60
		C316,27.999,288.999,0,256,0z"/>
	<path style="fill:#4DBBEB;" d="M256,121c-41.4,0-75,33.6-75,75v30c0,8.399,6.599,15,15,15h120c8.401,0,15-6.601,15-15v-30
		C331,154.6,297.4,121,256,121z"/>
</g>
<g>
	<path style="fill:#159CE4;" d="M331,196v30c0,8.399-6.599,15-15,15h-60V121C297.4,121,331,154.6,331,196z"/>
	<path style="fill:#159CE4;" d="M316,61c0,32.999-27.001,60-60,60V0C288.999,0,316,27.999,316,61z"/>
</g>
<g>
	<path style="fill:#4DBBEB;" d="M437,61c-32.999,0-60,26.999-60,60c0,32.999,27.001,60,60,60s60-27.001,60-60
		C497,87.999,469.999,61,437,61z"/>
	<path style="fill:#4DBBEB;" d="M437,181c-41.4,0-75,33.6-75,75v30c0,8.399,6.599,15,15,15h120c8.401,0,15-6.601,15-15v-30
		C512,214.6,478.4,181,437,181z"/>
</g>
<g>
	<path style="fill:#159CE4;" d="M512,256v30c0,8.399-6.599,15-15,15h-60V181C478.4,181,512,214.6,512,256z"/>
	<path style="fill:#159CE4;" d="M497,121c0,32.999-27.001,60-60,60V61C469.999,61,497,87.999,497,121z"/>
</g>
<path style="fill:#FE9923;" d="M331,286v211c0,8.399-6.599,15-15,15h-60V271h60C324.401,271,331,277.599,331,286z"/>
<path style="fill:#FD3018;" d="M512,346v151c0,8.399-6.599,15-15,15h-60V331h60C505.401,331,512,337.599,512,346z"/>
<g>
</g>
<g>
</g>
<g>
</g>
<g>
</g>
<g>
</g>
<g>
</g>
<g>
</g>
<g>
</g>
<g>
</g>
<g>
</g>
<g>
</g>
<g>
</g>
<g>
</g>
<g>
</g>
<g>
</g>
</svg>
