<?xml version="1.0" encoding="iso-8859-1"?>
<!-- Generator: Adobe Illustrator 19.0.0, SVG Export Plug-In . SVG Version: 6.00 Build 0)  -->
<svg version="1.1" id="Capa_1" xmlns="http://www.w3.org/2000/svg" xmlns:xlink="http://www.w3.org/1999/xlink" x="0px" y="0px"
	 viewBox="0 0 512 512" style="enable-background:new 0 0 512 512;" xml:space="preserve">
<path style="fill:#FFC870;" d="M114,200H86c-35.346,0-64,28.654-64,64v76c0,11.046,8.954,20,20,20h10.225h7.838v142l0,0h19.972
	c11.03,0,19.972-8.942,19.972-19.972V360h0.113v142l0,0h19.972c11.03,0,19.972-8.942,19.972-19.972V360h6.412H158
	c11.046,0,20-8.954,20-20v-76C178,228.654,149.346,200,114,200z"/>
<path style="fill:#58BFFF;" d="M60.063,317.5V360v142l0,0h19.972c11.03,0,19.972-8.942,19.972-19.972V360h0.113v142l0,0h19.972
	c11.03,0,19.972-8.942,19.972-19.972V360v-42.5H60.063z"/>
<path style="fill:#FFCDAC;" d="M100,200L100,200c-17.673,0-32-14.327-32-32v-8c0-17.673,14.327-32,32-32l0,0
	c17.673,0,32,14.327,32,32v8C132,185.673,117.673,200,100,200z"/>
<path style="fill:#FE6663;" d="M270,146h-28c-35.346,0-64,28.654-64,64v76c0,11.046,8.954,20,20,20h10.225h7.838v142l0,0h19.972
	c11.03,0,19.972-8.942,19.972-19.972V306h0.113v142l0,0h19.972c11.03,0,19.972-8.942,19.972-19.972V306h6.412H314
	c11.046,0,20-8.954,20-20v-76C334,174.654,305.346,146,270,146z"/>
<path style="fill:#A5DDFF;" d="M216.063,263.5V306v142l0,0h19.972c11.03,0,19.972-8.942,19.972-19.972V306h0.113v142l0,0h19.972
	c11.03,0,19.972-8.942,19.972-19.972V306v-42.5H216.063z"/>
<path style="fill:#FFCDAC;" d="M256,146L256,146c-17.673,0-32-14.327-32-32v-8c0-17.673,14.327-32,32-32l0,0
	c17.673,0,32,14.327,32,32v8C288,131.673,273.673,146,256,146z"/>
<path style="fill:#FFC870;" d="M426,200h-28c-35.346,0-64,28.654-64,64v76c0,11.046,8.954,20,20,20h10.225h7.838v142l0,0h19.972
	c11.03,0,19.972-8.942,19.972-19.972V360h0.113v142l0,0h19.972c11.03,0,19.972-8.942,19.972-19.972V360h6.412H470
	c11.046,0,20-8.954,20-20v-76C490,228.654,461.346,200,426,200z"/>
<path style="fill:#58BFFF;" d="M372.063,317.5V360v142l0,0h19.972c11.03,0,19.972-8.942,19.972-19.972V360h0.113v142l0,0h19.972
	c11.03,0,19.972-8.942,19.972-19.972V360v-42.5H372.063z"/>
<path style="fill:#FFCDAC;" d="M412,200L412,200c-17.673,0-32-14.327-32-32v-8c0-17.673,14.327-32,32-32l0,0
	c17.673,0,32,14.327,32,32v8C444,185.673,429.673,200,412,200z"/>
<path d="M60.06,439c2.63,0,5.21-1.07,7.07-2.931c1.87-1.859,2.93-4.439,2.93-7.069s-1.06-5.21-2.93-7.07
	c-1.86-1.86-4.44-2.93-7.07-2.93s-5.21,1.069-7.069,2.93c-1.86,1.86-2.931,4.44-2.931,7.07s1.07,5.21,2.931,7.069
	C54.859,437.93,57.43,439,60.06,439z"/>
<path d="M445.909,192.743C450.991,185.798,454,177.246,454,168v-8c0-23.159-18.841-42-42-42s-42,18.841-42,42v8
	c0,9.246,3.009,17.798,8.091,24.743c-13.223,3.7-24.957,10.981-34.091,20.737V210c0-33.906-22.93-62.539-54.091-71.257
	C294.991,131.798,298,123.246,298,114v-8c0-23.159-18.841-42-42-42s-42,18.841-42,42v8c0,9.246,3.009,17.798,8.091,24.743
	C190.93,147.461,168,176.094,168,210v3.48c-9.134-9.757-20.868-17.038-34.091-20.737C138.991,185.798,142,177.246,142,168v-8
	c0-23.159-18.841-42-42-42s-42,18.841-42,42v8c0,9.246,3.009,17.798,8.091,24.743C34.93,201.461,12,230.094,12,264v76
	c0,16.542,13.458,30,30,30h8.063v22c0,5.522,4.478,10,10,10s10-4.478,10-10v-64.5h60v154.528c0,5.498-4.474,9.972-9.972,9.972
	s-9.972-4.474-9.972-9.972V384.5c0-0.486-0.046-0.959-0.113-1.426v-8.947c0-5.522-4.478-10-10-10s-10,4.478-10,10v107.901
	c0,5.498-4.474,9.972-9.972,9.972s-9.972-4.474-9.972-9.972V463c0-5.522-4.478-10-10-10s-10,4.478-10,10v19.028
	c0,16.526,13.445,29.972,29.972,29.972c7.693,0,14.716-2.916,20.028-7.697c5.313,4.781,12.335,7.697,20.028,7.697
	c16.526,0,29.972-13.445,29.972-29.972V370H158c16.542,0,30-13.458,30-30v-25.72c3.13,1.11,6.494,1.72,10,1.72h8.063v112.028
	c0,16.526,13.445,29.972,29.972,29.972c7.693,0,14.716-2.916,20.028-7.697c5.313,4.781,12.335,7.697,20.028,7.697
	c16.526,0,29.972-13.445,29.972-29.972V316H314c3.506,0,6.87-0.61,10-1.72V340c0,16.542,13.458,30,30,30h8.063v112.028
	c0,16.526,13.445,29.972,29.972,29.972c7.693,0,14.716-2.916,20.028-7.697c5.313,4.781,12.335,7.697,20.028,7.697
	c16.526,0,29.972-13.445,29.972-29.972v-29.965c0-5.522-4.478-10-10-10s-10,4.478-10,10v29.965c0,5.498-4.474,9.972-9.972,9.972
	s-9.972-4.474-9.972-9.972V384.5c0-0.486-0.046-0.959-0.113-1.426v-8.947c0-5.522-4.478-10-10-10s-10,4.478-10,10v107.901
	c0,5.498-4.474,9.972-9.972,9.972s-9.972-4.474-9.972-9.972V327.5h60V385c0,5.522,4.478,10,10,10s10-4.478,10-10v-15H470
	c16.542,0,30-13.458,30-30v-76C500,230.094,477.07,201.461,445.909,192.743z M390,160c0-12.131,9.869-22,22-22s22,9.869,22,22v8
	c0,12.131-9.869,22-22,22s-22-9.869-22-22V160z M234,106c0-12.131,9.869-22,22-22c12.131,0,22,9.869,22,22v8
	c0,12.131-9.869,22-22,22s-22-9.869-22-22V106z M78,160c0-12.131,9.869-22,22-22s22,9.869,22,22v8c0,12.131-9.869,22-22,22
	s-22-9.869-22-22V160z M168,340c0,5.514-4.486,10-10,10h-7.937v-82c0-5.522-4.478-10-10-10s-10,4.478-10,10v39.5h-60V268
	c0-5.522-4.478-10-10-10s-10,4.478-10,10v82H42c-5.514,0-10-4.486-10-10v-76c0-29.775,24.225-54,54-54h28c29.775,0,54,24.225,54,54
	v22V340z M276.092,438c-5.498,0-9.972-4.474-9.972-9.972V330.5c0-0.486-0.046-0.959-0.113-1.426v-8.947c0-5.522-4.478-10-10-10
	s-10,4.478-10,10v107.901c0,5.498-4.474,9.972-9.972,9.972s-9.972-4.474-9.972-9.972V273.5h60v154.528
	C286.063,433.526,281.59,438,276.092,438z M314,296h-7.937v-82c0-5.522-4.478-10-10-10s-10,4.478-10,10v39.5h-60V214
	c0-5.522-4.478-10-10-10s-10,4.478-10,10v82H198c-5.514,0-10-4.486-10-10v-22v-54c0-29.775,24.225-54,54-54h28
	c29.775,0,54,24.225,54,54v54v22C324,291.514,319.514,296,314,296z M480,340c0,5.514-4.486,10-10,10h-7.937v-82
	c0-5.522-4.478-10-10-10s-10,4.478-10,10v39.5h-60V268c0-5.522-4.478-10-10-10s-10,4.478-10,10v82H354c-5.514,0-10-4.486-10-10v-54
	v-22c0-29.775,24.225-54,54-54h28c29.775,0,54,24.225,54,54V340z"/>
<path d="M452.06,406.67c-2.63,0-5.21,1.06-7.069,2.93c-1.86,1.86-2.931,4.431-2.931,7.07c0,2.63,1.07,5.21,2.931,7.07
	c1.859,1.859,4.439,2.93,7.069,2.93c2.641,0,5.21-1.07,7.07-2.93c1.87-1.86,2.93-4.44,2.93-7.07c0-2.64-1.06-5.21-2.93-7.07
	C457.27,407.729,454.7,406.67,452.06,406.67z"/>
<path d="M204.5,85c5.522,0,10-4.478,10-10V61.62c0-2.818,1.679-5.343,4.277-6.434l37.286-15.648l37.287,15.648
	c2.598,1.091,4.276,3.615,4.276,6.434V75c0,5.522,4.478,10,10,10s10-4.478,10-10V61.62c0-10.896-6.491-20.66-16.537-24.875
	L266,22.019V10c0-5.522-4.478-10-10-10s-10,4.478-10,10v12.072l-34.962,14.673C200.991,40.96,194.5,50.725,194.5,61.62V75
	C194.5,80.522,198.978,85,204.5,85z"/>
<g>
</g>
<g>
</g>
<g>
</g>
<g>
</g>
<g>
</g>
<g>
</g>
<g>
</g>
<g>
</g>
<g>
</g>
<g>
</g>
<g>
</g>
<g>
</g>
<g>
</g>
<g>
</g>
<g>
</g>
</svg>
