<svg height="480pt" viewBox="0 0 480 480" width="480pt" xmlns="http://www.w3.org/2000/svg"><path d="m401.359375 270.640625 30.640625-30.640625v-100c0-11.039062 8.960938-20 20-20 5.519531 0 10.558594 2.238281 14.160156 5.839844 3.601563 3.601562 5.839844 8.640625 5.839844 14.160156v176l-72 92v64h-72v-128zm0 0" fill="#f3f3fb"/><path d="m311.519531 206.160156 40.480469 57.839844h-48l-24 48-33.441406-80.238281c24.640625-1.363281 47.121094-10.800781 64.960937-25.601563zm0 0" fill="#ef6461"/><path d="m240 8c61.839844 0 112 50.160156 112 112 0 34.640625-15.761719 65.601562-40.480469 86.160156-17.839843 14.800782-40.320312 24.238282-64.960937 25.601563-2.160156.160156-4.320313.238281-6.558594.238281s-4.398438-.078125-6.558594-.238281c-24.640625-1.363281-47.121094-10.800781-64.960937-25.601563-24.71875-20.558594-40.480469-51.519531-40.480469-86.160156 0-61.839844 50.160156-112 112-112zm32 111.441406 32-28.640625-44.238281-5.921875-19.761719-36.878906-19.761719 36.878906-44.238281 5.921875 32 28.640625-7.519531 40.558594 39.519531-19.121094 39.519531 19.121094zm0 0" fill="#bdd5ea"/><path d="m304 90.800781-32 28.640625 7.519531 40.558594-39.519531-19.121094-39.519531 19.121094 7.519531-40.558594-32-28.640625 44.238281-5.921875 19.761719-36.878906 19.761719 36.878906zm0 0" fill="#ffbd52"/><path d="m233.441406 231.761719-33.441406 80.238281-24-48h-48l40.480469-57.839844c17.839843 14.800782 40.320312 24.238282 64.960937 25.601563zm0 0" fill="#ef6461"/><path d="m78.640625 270.640625 73.359375 73.359375v128h-72v-64l-72-92v-176c0-5.519531 2.238281-10.558594 5.839844-14.160156 3.601562-3.601563 8.640625-5.839844 14.160156-5.839844 11.039062 0 20 8.960938 20 20v100zm0 0" fill="#f3f3fb"/><g fill="#313b45"><path d="m56 236.6875v-96.6875c0-15.441406-12.558594-28-28-28s-28 12.558594-28 28v176c0 1.792969.601562 3.519531 1.703125 4.929688l70.296875 89.832031v61.238281c0 4.425781 3.574219 8 8 8h72c4.425781 0 8-3.574219 8-8v-128c0-2.128906-.839844-4.160156-2.34375-5.65625zm88 227.3125h-56v-56c0-1.792969-.601562-3.519531-1.703125-4.929688l-70.296875-89.832031v-173.238281c0-6.617188 5.382812-12 12-12s12 5.382812 12 12v100c0 2.128906.839844 4.160156 2.34375 5.65625l11.59375 11.601562c-12.664062 3.75-21.9375 15.503907-21.9375 29.367188 0 8.175781 3.183594 15.871094 8.96875 21.65625l49.375 49.375 11.3125-11.3125-49.375-49.375c-2.722656-2.722656-4.28125-6.488281-4.28125-10.34375 0-8.066406 6.558594-14.625 14.625-14.625 3.832031 0 7.589844 1.542969 10.3125 4.257812l71.0625 71.054688zm0 0"/><path d="m452 112c-15.441406 0-28 12.558594-28 28v96.6875l-101.65625 101.65625c-1.503906 1.496094-2.34375 3.527344-2.34375 5.65625v128c0 4.425781 3.574219 8 8 8h72c4.425781 0 8-3.574219 8-8v-61.238281l70.296875-89.832031c1.101563-1.410157 1.703125-3.136719 1.703125-4.929688v-176c0-15.441406-12.558594-28-28-28zm12 201.238281-70.296875 89.832031c-1.101563 1.410157-1.703125 3.136719-1.703125 4.929688v56h-56v-116.6875l71.0625-71.054688c2.722656-2.714843 6.480469-4.257812 10.3125-4.257812 8.066406 0 14.625 6.558594 14.625 14.625 0 3.847656-1.558594 7.621094-4.28125 10.34375l-49.375 49.375 11.3125 11.3125 49.375-49.375c5.785156-5.785156 8.96875-13.472656 8.96875-21.65625 0-13.863281-9.273438-25.617188-21.9375-29.367188l11.59375-11.601562c1.503906-1.496094 2.34375-3.527344 2.34375-5.65625v-100c0-6.617188 5.382812-12 12-12s12 5.382812 12 12zm0 0"/><path d="m199.3125 122.433594-6.738281 36.101562c-.542969 2.96875.609375 5.992188 3.011719 7.832032 2.40625 1.832031 5.613281 2.152343 8.34375.839843l36.070312-17.445312 36.070312 17.445312c1.113282.527344 2.296876.800781 3.488282.800781 1.730468 0 3.441406-.550781 4.855468-1.640624 2.402344-1.832032 3.554688-4.855469 3.011719-7.832032l-6.738281-36.101562 28.65625-25.699219c2.320312-2.078125 3.214844-5.328125 2.304688-8.308594-.921876-2.984375-3.496094-5.160156-6.585938-5.570312l-40.167969-5.375-17.839843-33.257813c-2.78125-5.199218-11.3125-5.199218-14.09375 0l-17.839844 33.257813-40.167969 5.375c-3.097656.417969-5.664063 2.585937-6.585937 5.570312-.910157 2.980469-.015626 6.230469 2.304687 8.308594zm21.976562-29.632813c2.542969-.34375 4.773438-1.878906 5.984376-4.152343l12.726562-23.71875 12.726562 23.71875c1.210938 2.261718 3.441407 3.808593 5.984376 4.152343l27.03125 3.613281-19.085938 17.113282c-2.082031 1.855468-3.03125 4.671875-2.519531 7.425781l4.65625 24.957031-25.304688-12.238281c-1.105469-.527344-2.289062-.800781-3.488281-.800781s-2.382812.265625-3.488281.800781l-25.304688 12.238281 4.65625-24.957031c.503907-2.753906-.449219-5.5625-2.519531-7.425781l-19.085938-17.113282zm0 0"/><path d="m359.097656 267.695312c1.382813-2.648437 1.167969-5.832031-.539062-8.28125l-36.46875-52.117187c23.269531-21.90625 37.910156-52.890625 37.910156-87.296875 0-66.167969-53.832031-120-120-120s-120 53.832031-120 120c0 34.40625 14.640625 65.390625 37.910156 87.296875l-36.46875 52.117187c-1.714844 2.449219-1.921875 5.632813-.539062 8.28125 1.378906 2.648438 4.113281 4.304688 7.097656 4.304688h43.054688l21.792968 43.574219c1.351563 2.722656 4.128906 4.425781 7.152344 4.425781.097656 0 .175781 0 .273438-.007812 3.132812-.105469 5.902343-2.023438 7.109374-4.914063l31.3125-75.140625c.441407 0 .863282.0625 1.304688.0625s.863281-.0625 1.304688-.0625l31.3125 75.140625c1.199218 2.890625 3.976562 4.816406 7.109374 4.914063.097657.007812.175782.007812.273438.007812 3.023438 0 5.800781-1.703125 7.160156-4.425781l21.785156-43.574219h43.054688c2.984375 0 5.71875-1.65625 7.097656-4.304688zm-223.097656-147.695312c0-57.34375 46.65625-104 104-104s104 46.65625 104 104-46.65625 104-104 104-104-46.65625-104-104zm63.335938 172.792969-16.175782-32.367188c-1.359375-2.714843-4.128906-4.425781-7.160156-4.425781h-32.640625l26.945313-38.503906c15.023437 10.769531 32.597656 18.105468 51.664062 21zm104.664062-36.792969c-3.03125 0-5.800781 1.710938-7.160156 4.425781l-16.175782 32.367188-22.632812-54.296875c19.058594-2.894532 36.640625-10.222656 51.664062-21l26.945313 38.503906zm0 0"/><path d="m232 184h16v16h-16zm0 0"/><path d="m264 184h16v16h-16zm0 0"/><path d="m200 184h16v16h-16zm0 0"/></g></svg>